# xmcd
#
# Track frame offsets: 
#        150
#        19410
#        33221
#        51058
#        70544
#        86476
#        105140
#        120545
#        137937
#        159693
#        179317
#
# Disc length: 2627 seconds
#
# Revision: 0
# Processed by: cddbd v1.5.2PL0 Copyright (c) Steve Scherf et al.
# Submitted via: ExactAudioCopy v1.3
#
DISCID=850a410b
DTITLE=Albert Cummings - Believe
DYEAR=2020
DGENRE=Blues Rock
TTITLE0=Hold On
TTITLE1=Do What Mama Says
TTITLE2=Red Rooster
TTITLE3=Queen Of Mean
TTITLE4=Crazy Love
TTITLE5=Get Out Of Here
TTITLE6=My Babe
TTITLE7=It's All Good
TTITLE8=Going My Way
TTITLE9=Call Me Crazy
TTITLE10=Me And My Guitar
EXTD=
EXTT0=
EXTT1=
EXTT2=
EXTT3=
EXTT4=
EXTT5=
EXTT6=
EXTT7=
EXTT8=
EXTT9=
EXTT10=
PLAYORDER=
